# xmcd
#
# Track frame offsets:
#	150
#	19624
#	38890
#	55117
#	72341
#	87525
#	101913
#	119659
#	139554
#	160275
#	175426
#
# Disc length: 2594 seconds
#
# Revision: 5
# Processed by: cddbd v1.5.2PL0 Copyright (c) Steve Scherf et al.
# Submitted via: EasyCDDAExtractor 15.3.0.1
#
DISCID=9b0a200b
DTITLE=Ana Gabriel - Dulce Y Salado
DYEAR=2003
DGENRE=Latin
TTITLE0=Dulce Y Salado
TTITLE1=Llorandote
TTITLE2=La Reina
TTITLE3=Estoy Tan Sola
TTITLE4=Pensando En Ti (Y Aqui Estoy Yo)
TTITLE5=Y Tu No Estas
TTITLE6=Mariachi Con Tambor
TTITLE7=Jazmin
TTITLE8=Amantes De Ocasion
TTITLE9=Tengo Que Esperar
TTITLE10=Sweet And Salt
EXTD=
EXTT0=
EXTT1=
EXTT2=
EXTT3=
EXTT4=
EXTT5=
EXTT6=
EXTT7=
EXTT8=
EXTT9=
EXTT10=
PLAYORDER=
